name C:\Users\u0101727\Documents\MyRepositories\paper-ad\predictivesimulations_2d/Results/PredSim_2D/IK_c30.mot
datacolumns 11
datarows 34
range 0.00000000 0.26592921
endheader
time	pelvis_tilt	pelvis_tx	pelvis_ty	hip_flexion_l	hip_flexion_r	knee_angle_l	knee_angle_r	ankle_angle_l	ankle_angle_r	lumbar_extension	
          0.00000000	        -11.03895587	          0.00000000	          0.92076505	         -1.80661518	         29.69981312	        -16.72692755	        -36.21293007	         -9.23697825	          4.36356086	          6.80363924	
          0.00805846	        -11.03540124	          0.01128904	          0.92020999	         -2.31735047	         29.92830891	        -16.84672553	        -34.59152686	        -10.44395695	          4.26363082	          6.83344386	
          0.01611692	        -11.02423079	          0.02274265	          0.91936149	         -2.79950243	         30.07471847	        -17.20386247	        -33.01208721	        -11.50791444	          4.19192074	          6.87191097	
          0.02417538	        -11.00628585	          0.03429382	          0.91815165	         -3.21361248	         30.15438782	        -17.71841195	        -31.49617133	        -12.52096565	          4.18522564	          6.91233185	
          0.03223384	        -10.98226036	          0.04593385	          0.91655947	         -3.56028776	         30.17361974	        -18.35547510	        -30.07619223	        -13.54196334	          4.27856033	          6.95439564	
          0.04029230	        -10.95199128	          0.05766123	          0.91458915	         -3.83270653	         30.13385838	        -19.13940842	        -28.77922512	        -14.58028813	          4.50439152	          6.99739860	
          0.04835077	        -10.91564506	          0.06947030	          0.91223402	         -4.02888802	         30.03884265	        -20.07238415	        -27.63828448	        -15.67065142	          4.88802444	          7.04057708	
          0.05640923	        -10.87314276	          0.08136044	          0.90949663	         -4.14597201	         29.88459299	        -21.17066001	        -26.69338084	        -16.83201316	          5.44370153	          7.08351653	
          0.06446769	        -10.82624271	          0.09332173	          0.90639841	         -4.16870818	         29.65374105	        -22.33743194	        -26.00007171	        -18.03270174	          6.16983916	          7.12642308	
          0.07252615	        -10.77564300	          0.10541839	          0.90298376	         -4.13782834	         29.29647324	        -23.64064364	        -25.64553872	        -19.18212585	          7.04165264	          7.17813641	
          0.08058461	        -10.72471683	          0.11768251	          0.89934237	         -4.05623365	         28.71235019	        -25.08269534	        -25.75320785	        -20.23926204	          8.00416337	          7.24791031	
          0.08864307	        -10.67820749	          0.12992301	          0.89572018	         -3.90900918	         28.00504246	        -26.63493221	        -26.16349083	        -21.15072852	          9.05857866	          7.32107801	
          0.09670153	        -10.64110367	          0.14187541	          0.89252493	         -3.67860093	         27.35366047	        -28.23501996	        -26.64035958	        -21.87123754	         10.21612003	          7.37564047	
          0.10475999	        -10.61614470	          0.15348205	          0.89010393	         -3.36058017	         26.76168814	        -29.80755889	        -27.16905634	        -22.38462481	         11.40251697	          7.41184733	
          0.11281845	        -10.60142971	          0.16476904	          0.88854124	         -2.94751112	         26.21266864	        -31.31397179	        -27.71508367	        -22.69871162	         12.53218045	          7.43250494	
          0.12087691	        -10.59306505	          0.17581936	          0.88768735	         -2.45070244	         25.67726644	        -32.77274585	        -28.23387857	        -22.82394206	         13.53652520	          7.44307917	
          0.12893537	        -10.58814531	          0.18670440	          0.88732871	         -1.87935196	         25.12628172	        -34.20304358	        -28.68129459	        -22.77271776	         14.37912284	          7.44776152	
          0.13699383	        -10.58521325	          0.19746577	          0.88730035	         -1.23958083	         24.54401581	        -35.61093488	        -29.03449178	        -22.55673189	         15.05444787	          7.44864481	
          0.14505230	        -10.58350603	          0.20812367	          0.88749474	         -0.53791906	         23.92860712	        -36.99696940	        -29.29302357	        -22.18773244	         15.56550703	          7.44619568	
          0.15311076	        -10.58273094	          0.21868859	          0.88784663	          0.22086395	         23.28059437	        -38.35707574	        -29.45911110	        -21.67708077	         15.91876053	          7.44047807	
          0.16116922	        -10.58285178	          0.22916628	          0.88831902	          1.03338988	         22.60097675	        -39.68561365	        -29.53574361	        -21.03603856	         16.12647817	          7.43147602	
          0.16922768	        -10.58389913	          0.23955989	          0.88889115	          1.89675562	         21.89239861	        -40.97575623	        -29.52915254	        -20.27584577	         16.20533794	          7.41906025	
          0.17728614	        -10.58593081	          0.24987196	          0.88954967	          2.80800077	         21.15818858	        -42.22027515	        -29.44706867	        -19.40776868	         16.17349826	          7.40310606	
          0.18534460	        -10.58902613	          0.26010534	          0.89028417	          3.76392550	         20.40165437	        -43.41196193	        -29.29716624	        -18.44310727	         16.04773159	          7.38354519	
          0.19340306	        -10.59329006	          0.27026367	          0.89108551	          4.76094391	         19.62567923	        -44.54386120	        -29.08627816	        -17.39319353	         15.84199719	          7.36040111	
          0.20146152	        -10.59883880	          0.28035159	          0.89194572	          5.79530185	         18.83250852	        -45.60924899	        -28.82000485	        -16.26937147	         15.56695814	          7.33378783	
          0.20951998	        -10.60577655	          0.29037475	          0.89285885	          6.86335496	         18.02370639	        -46.60155415	        -28.50260563	        -15.08297574	         15.22978454	          7.30390174	
          0.21757844	        -10.61417774	          0.30034003	          0.89382222	          7.96161405	         17.20029655	        -47.51436258	        -28.13719098	        -13.84532510	         14.83411622	          7.27103076	
          0.22563690	        -10.62408120	          0.31025560	          0.89483691	          9.08658219	         16.36309188	        -48.34145461	        -27.72608254	        -12.56773372	         14.38034564	          7.23555262	
          0.23369536	        -10.63551365	          0.32013066	          0.89590591	         10.23440154	         15.51290131	        -49.07677140	        -27.27124499	        -11.26154612	         13.86669938	          7.19792311	
          0.24175383	        -10.64850714	          0.32997496	          0.89703196	         11.40087878	         14.65058587	        -49.71424998	        -26.77460636	         -9.93815411	         13.29035976	          7.15862926	
          0.24981229	        -10.66309210	          0.33979843	          0.89821715	         12.58170241	         13.77713573	        -50.24776628	        -26.23820408	         -8.60899532	         12.64794581	          7.11815168	
          0.25787075	        -10.67929232	          0.34961121	          0.89946305	         13.77236031	         12.89373916	        -50.67119813	        -25.66440424	         -7.28556383	         11.93587039	          7.07697125	
          0.26592921	        -10.69712409	          0.35942347	          0.90077051	         14.96820505	         12.00183502	        -50.97838215	        -25.05589519	         -5.97940538	         11.15048094	          7.03555487	
